<svg width="24" height="24" viewBox="0 0 24 24" fill="none" xmlns="http://www.w3.org/2000/svg">
<path fill-rule="evenodd" clip-rule="evenodd" d="M16.5153 17.6466C16.7105 17.8419 17.0271 17.8419 17.2224 17.6466L17.6465 17.2225C17.8418 17.0272 17.8418 16.7106 17.6465 16.5154L12.9095 11.7783L17.6468 7.04103C17.842 6.84577 17.842 6.52918 17.6468 6.33392L17.2226 5.90975C17.0273 5.71449 16.7107 5.71449 16.5155 5.90975L11.7782 10.647L7.0409 5.90974C6.84564 5.71448 6.52906 5.71448 6.3338 5.90974L5.90963 6.3339C5.71437 6.52917 5.71437 6.84575 5.90963 7.04101L10.6469 11.7783L5.90986 16.5154C5.7146 16.7106 5.7146 17.0272 5.90986 17.2225L6.33403 17.6467C6.52929 17.8419 6.84587 17.8419 7.04114 17.6467L11.7782 12.9096L16.5153 17.6466Z" fill="#6E7C98"/>
</svg>
