<svg width="60" height="60" viewBox="0 0 60 60" fill="none" xmlns="http://www.w3.org/2000/svg">
<path fill-rule="evenodd" clip-rule="evenodd" d="M30.0002 7.5C17.5742 7.5 7.50024 17.571 7.50024 30C7.50024 42.429 17.5742 52.5 30.0002 52.5C42.4292 52.5 52.5002 42.429 52.5002 30C52.5002 17.571 42.4292 7.5 30.0002 7.5ZM30.0003 10.5C40.7553 10.5 49.5003 19.248 49.5003 30C49.5003 40.752 40.7553 49.5 30.0003 49.5C19.2483 49.5 10.5003 40.752 10.5003 30C10.5003 19.248 19.2483 10.5 30.0003 10.5ZM28.5017 37.5H31.5017V16.5H28.5017V37.5ZM31.5017 43.5H28.5017V40.5H31.5017V43.5Z" fill="#E5322C"/>
</svg>
