<svg width="40" height="40" viewBox="0 0 40 40" fill="none" xmlns="http://www.w3.org/2000/svg">
    <path fill-rule="evenodd" clip-rule="evenodd"
        d="M13.5 13.0001C14.3284 13.0001 15 12.3285 15 11.5001C15 10.6716 14.3284 10.0001 13.5 10.0001C12.6716 10.0001 12 10.6716 12 11.5001C12 12.3285 12.6716 13.0001 13.5 13.0001ZM13.5 14.0001C14.8807 14.0001 16 12.8808 16 11.5001C16 10.1193 14.8807 9.00006 13.5 9.00006C12.1193 9.00006 11 10.1193 11 11.5001C11 12.8808 12.1193 14.0001 13.5 14.0001ZM9 19.5001C9 17.0148 11.0147 15.0001 13.5 15.0001C15.2515 15.0001 16.7693 16.0007 17.5128 17.4615C18.1121 17.166 18.7867 17.0001 19.5 17.0001C20.2209 17.0001 20.9022 17.1696 21.5062 17.4709L21.5229 17.3924C22.2788 15.9692 23.7761 15.0001 25.4999 15.0001C27.9851 15.0001 29.9999 17.0148 29.9999 19.5001V22.5001C29.9999 23.3285 29.3283 24.0001 28.4999 24.0001H27.9999V28.5001C27.9999 29.3285 27.3283 30.0001 26.4999 30.0001H24.4999C23.6714 30.0001 22.9999 29.3285 22.9999 28.5001V25.9148C22.8435 25.97 22.6753 26.0001 22.5 26.0001H22V30.5001C22 31.3285 21.3284 32.0001 20.5 32.0001H18.5C17.6716 32.0001 17 31.3285 17 30.5001V26.0001H16.5C16.3247 26.0001 16.1564 25.97 16 25.9147V28.5001C16 29.3285 15.3284 30.0001 14.5 30.0001H12.5C11.6716 30.0001 11 29.3285 11 28.5001V24.0001H10.5C9.67157 24.0001 9 23.3285 9 22.5001V19.5001ZM23 24.0001H22.9999V24.5123C22.9934 24.7828 22.7721 25.0001 22.5 25.0001H22H21.5C21.2236 25.0001 21 25.2239 21 25.5001V26.0001V30.5001C21 30.7762 20.7761 31.0001 20.5 31.0001H18.5C18.2239 31.0001 18 30.7762 18 30.5001V26.0001V25.629V25.5C18 25.2254 17.7786 25.0025 17.5046 25.0001H17.1953H17H16.5C16.2239 25.0001 16 24.7762 16 24.5001V24.0001V21.5001C16 19.5671 17.567 18.0001 19.5 18.0001C21.433 18.0001 23 19.5671 23 21.5001V24.0001ZM23.9999 24.5213V28.5001C23.9999 28.7762 24.2237 29.0001 24.4999 29.0001H26.4999C26.776 29.0001 26.9999 28.7762 26.9999 28.5001V24.0001V23.5001C26.9999 23.2255 27.2212 23.0025 27.4952 23.0001H27.4999H27.9999H28.4999C28.776 23.0001 28.9999 22.7762 28.9999 22.5001V19.5001C28.9999 17.5671 27.4328 16.0001 25.4999 16.0001C24.1029 16.0001 22.8971 16.8185 22.3358 18.002L22.3174 17.9909C23.3433 18.8157 24 20.0812 24 21.5001V24.5001C24 24.5071 24 24.5142 23.9999 24.5213ZM13.5 16.0001C14.8981 16.0001 16.1047 16.8198 16.6654 18.0048C15.6493 18.8299 15 20.0892 15 21.5001V23.5V23.5001V24.0001V24.5001V28.5001C15 28.7762 14.7761 29.0001 14.5 29.0001H12.5C12.2239 29.0001 12 28.7762 12 28.5001V24.0001V23.629V23.5C12 23.2254 11.7786 23.0025 11.5046 23.0001H11.1953H11H10.5C10.2239 23.0001 10 22.7762 10 22.5001V19.5001C10 17.5671 11.567 16.0001 13.5 16.0001ZM21 13.5001C21 14.3285 20.3284 15.0001 19.5 15.0001C18.6716 15.0001 18 14.3285 18 13.5001C18 12.6716 18.6716 12.0001 19.5 12.0001C20.3284 12.0001 21 12.6716 21 13.5001ZM22 13.5001C22 14.8808 20.8807 16.0001 19.5 16.0001C18.1193 16.0001 17 14.8808 17 13.5001C17 12.1193 18.1193 11.0001 19.5 11.0001C20.8807 11.0001 22 12.1193 22 13.5001ZM26.9999 11.5001C26.9999 12.3285 26.3283 13.0001 25.4999 13.0001C24.6714 13.0001 23.9999 12.3285 23.9999 11.5001C23.9999 10.6716 24.6714 10.0001 25.4999 10.0001C26.3283 10.0001 26.9999 10.6716 26.9999 11.5001ZM27.9999 11.5001C27.9999 12.8808 26.8806 14.0001 25.4999 14.0001C24.1191 14.0001 22.9999 12.8808 22.9999 11.5001C22.9999 10.1193 24.1191 9.00006 25.4999 9.00006C26.8806 9.00006 27.9999 10.1193 27.9999 11.5001Z"
        fill="#5E92FC" />
</svg>