<svg width="25" height="26" viewBox="0 0 25 26" fill="none" xmlns="http://www.w3.org/2000/svg">
<path fill-rule="evenodd" clip-rule="evenodd" d="M6.5 5.50007H17.5C18.3284 5.50007 19 6.17164 19 7.00007V18.0001C19 18.8285 18.3284 19.5001 17.5 19.5001H6.5C5.67157 19.5001 5 18.8285 5 18.0001V7.00007C5 6.17164 5.67157 5.50007 6.5 5.50007ZM6.5 6.50007C6.22386 6.50007 6 6.72393 6 7.00007V8.00007H18V7.00007C18 6.72393 17.7761 6.50007 17.5 6.50007H6.5ZM18 9.00007H6V18.0001C6 18.2762 6.22386 18.5001 6.5 18.5001H17.5C17.7761 18.5001 18 18.2762 18 18.0001V9.00007ZM8.2 10.5001C8.08954 10.5001 8 10.5896 8 10.7001V12.3001C8 12.4105 8.08954 12.5001 8.2 12.5001H9.8C9.91046 12.5001 10 12.4105 10 12.3001V10.7001C10 10.5896 9.91046 10.5001 9.8 10.5001H8.2ZM11.2 10.5001C11.0895 10.5001 11 10.5896 11 10.7001V12.3001C11 12.4105 11.0895 12.5001 11.2 12.5001H12.8C12.9105 12.5001 13 12.4105 13 12.3001V10.7001C13 10.5896 12.9105 10.5001 12.8 10.5001H11.2ZM14 10.7001C14 10.5896 14.0895 10.5001 14.2 10.5001H15.8C15.9105 10.5001 16 10.5896 16 10.7001V12.3001C16 12.4105 15.9105 12.5001 15.8 12.5001H14.2C14.0895 12.5001 14 12.4105 14 12.3001V10.7001ZM8.2 14.5001C8.08954 14.5001 8 14.5896 8 14.7001V16.3001C8 16.4105 8.08954 16.5001 8.2 16.5001H9.8C9.91046 16.5001 10 16.4105 10 16.3001V14.7001C10 14.5896 9.91046 14.5001 9.8 14.5001H8.2ZM11 14.7001C11 14.5896 11.0895 14.5001 11.2 14.5001H12.8C12.9105 14.5001 13 14.5896 13 14.7001V16.3001C13 16.4105 12.9105 16.5001 12.8 16.5001H11.2C11.0895 16.5001 11 16.4105 11 16.3001V14.7001ZM14.2 14.5001C14.0895 14.5001 14 14.5896 14 14.7001V16.3001C14 16.4105 14.0895 16.5001 14.2 16.5001H15.8C15.9105 16.5001 16 16.4105 16 16.3001V14.7001C16 14.5896 15.9105 14.5001 15.8 14.5001H14.2Z" fill="#6E7C98"/>
</svg>
